<svg width="20" height="21" viewBox="0 0 20 21" fill="none" xmlns="http://www.w3.org/2000/svg">
<path fill-rule="evenodd" clip-rule="evenodd" d="M19.3862 13.6069L16 11.5753V9.75C16.0024 9.47965 15.8591 9.22892 15.625 9.09375L10.75 6.315V4.5H12.25C12.6642 4.5 13 4.16421 13 3.75C13 3.33579 12.6642 3 12.25 3H10.75V1.5C10.75 1.08579 10.4142 0.75 10 0.75C9.58579 0.75 9.25 1.08579 9.25 1.5V3H7.75C7.33579 3 7 3.33579 7 3.75C7 4.16421 7.33579 4.5 7.75 4.5H9.25V6.315L4.375 9.09844C4.14085 9.23361 3.99758 9.48434 4 9.75469V11.58L0.61375 13.6069C0.38799 13.7425 0.249918 13.9866 0.25 14.25V20.25C0.25 20.6642 0.585786 21 1 21H8.5C8.91421 21 9.25 20.6642 9.25 20.25V15.75C9.25 15.3358 9.58579 15 10 15C10.4142 15 10.75 15.3358 10.75 15.75V20.25C10.75 20.6642 11.0858 21 11.5 21H19C19.4142 21 19.75 20.6642 19.75 20.25V14.25C19.7501 13.9866 19.612 13.7425 19.3862 13.6069ZM1.75 14.6747L4 13.3247V19.5H1.75V14.6747ZM10 13.5C8.75736 13.5 7.75 14.5074 7.75 15.75V19.5H5.5V10.185L10 7.61344L14.5 10.185V19.5H12.25V15.75C12.25 14.5074 11.2426 13.5 10 13.5ZM18.25 19.5H16V13.3247L18.25 14.6747V19.5Z" fill="#2D2D2D"/>
</svg>
