<svg width="20" height="20" viewBox="0 0 20 20" fill="none" xmlns="http://www.w3.org/2000/svg">
<g clip-path="url(#clip0_69_75)">
<path fill-rule="evenodd" clip-rule="evenodd" d="M10 1.875C5.51269 1.875 1.875 5.51269 1.875 10C1.875 14.4873 5.51269 18.125 10 18.125C14.4873 18.125 18.125 14.4873 18.125 10C18.1203 5.51465 14.4853 1.87974 10 1.875ZM16.875 10C16.8757 10.882 16.7059 11.7558 16.375 12.5734L12.8828 10.4258C12.7343 10.3342 12.5682 10.2748 12.3953 10.2516L10.6125 10.0109C10.1102 9.94545 9.61764 10.1874 9.3625 10.625H8.68125L8.38437 10.0109C8.21805 9.66443 7.90078 9.41436 7.525 9.33359L6.9 9.19844L7.51094 8.125H8.81641C9.02765 8.12459 9.23537 8.07084 9.42031 7.96875L10.3773 7.44063C10.4614 7.39376 10.54 7.33768 10.6117 7.27344L12.7141 5.37187C13.1483 4.98276 13.2541 4.34437 12.9688 3.83594L12.9406 3.78516C15.3417 4.92369 16.8731 7.34263 16.875 10ZM11.1961 3.22969L11.875 4.44531L9.77266 6.34688L8.81641 6.875H7.51094C7.0637 6.87434 6.65018 7.11268 6.42656 7.5L5.74453 8.68984L4.95156 6.57734L5.80625 4.55625C7.33597 3.37428 9.29315 2.89208 11.1969 3.22813L11.1961 3.22969ZM3.125 10C3.12396 8.97814 3.35194 7.96904 3.79219 7.04688L4.67812 9.41172C4.82815 9.80959 5.17015 10.1039 5.58594 10.193L7.26016 10.5531L7.55781 11.1719C7.76854 11.6012 8.20459 11.8737 8.68281 11.875H8.79844L8.23359 13.143C8.03017 13.5993 8.11804 14.133 8.45703 14.5L8.46797 14.5109L10 16.0891L9.84844 16.8703C6.11458 16.7834 3.1312 13.7349 3.125 10ZM11.1391 16.7797L11.2273 16.3258C11.3009 15.9347 11.185 15.532 10.9148 15.2398C10.911 15.2364 10.9074 15.2327 10.9039 15.2289L9.375 13.6516L10.4453 11.25L12.2281 11.4906L15.8 13.6875C14.7535 15.331 13.0601 16.4544 11.1391 16.7797Z" fill="white"/>
</g>
<defs>
<clipPath id="clip0_69_75">
<rect width="20" height="20" fill="white"/>
</clipPath>
</defs>
</svg>
