<svg width="19" height="22" viewBox="0 0 19 22" fill="none" xmlns="http://www.w3.org/2000/svg">
<path d="M2.13755 4.15433C1.6673 4.27167 1.30789 4.68967 1.21289 5.22867C1.08147 5.96567 1.49947 6.69167 2.14072 6.84567C2.25155 6.87317 2.94347 6.875 9.50005 6.875C16.0551 6.875 16.7486 6.87133 16.8594 6.84567C17.1713 6.7705 17.4452 6.556 17.6146 6.25167C17.7413 6.02617 17.792 5.84833 17.8078 5.57333C17.8442 4.9005 17.4373 4.29183 16.8594 4.15433C16.7486 4.12867 16.0361 4.125 9.48897 4.12683C3.33772 4.12683 2.22464 4.13233 2.13755 4.15433Z" fill="white"/>
<path d="M2.13755 9.65433C1.6673 9.77167 1.30789 10.1897 1.21289 10.7287C1.08147 11.4657 1.49947 12.1917 2.14072 12.3457C2.25155 12.3732 2.94347 12.375 9.50005 12.375C16.0551 12.375 16.7486 12.3713 16.8594 12.3457C17.1713 12.2705 17.4452 12.056 17.6146 11.7517C17.7413 11.5262 17.792 11.3483 17.8078 11.0733C17.8442 10.4005 17.4373 9.79183 16.8594 9.65433C16.7486 9.62867 16.0361 9.625 9.48897 9.62683C3.33772 9.62683 2.22464 9.63233 2.13755 9.65433Z" fill="white"/>
<path d="M2.13755 15.1543C1.6673 15.2717 1.30789 15.6897 1.21289 16.2287C1.08147 16.9657 1.49947 17.6917 2.14072 17.8457C2.25155 17.8732 2.94347 17.875 9.50005 17.875C16.0551 17.875 16.7486 17.8713 16.8594 17.8457C17.1713 17.7705 17.4452 17.556 17.6146 17.2517C17.7413 17.0262 17.792 16.8483 17.8078 16.5733C17.8442 15.9005 17.4373 15.2918 16.8594 15.1543C16.7486 15.1287 16.0361 15.125 9.48897 15.1268C3.33772 15.1268 2.22464 15.1323 2.13755 15.1543Z" fill="white"/>
</svg>
