<svg width="34" height="34" viewBox="0 0 34 34" fill="none" xmlns="http://www.w3.org/2000/svg">
<path d="M16.3401 0.340027C7.50417 0.340027 0.340088 7.50411 0.340088 16.34C0.340088 25.1759 7.50417 32.34 16.3401 32.34C25.176 32.34 32.3401 25.1759 32.3401 16.34C32.3401 7.50411 25.176 0.340027 16.3401 0.340027ZM24.2029 11.3082L21.5776 23.6772C21.398 24.5588 20.8658 24.7645 20.1278 24.3596L16.1278 21.4013L14.2078 23.269C13.9825 23.4878 13.8062 23.6706 13.4078 23.6706C12.8887 23.6706 12.9768 23.478 12.8005 22.9817L11.4389 18.5082L7.48131 17.2772C6.6258 17.0159 6.61927 16.4282 7.67397 16.007L23.0862 10.0576C23.7915 9.74084 24.4707 10.2274 24.2029 11.3082Z" fill="#00BE8B"/>
</svg>
