<svg width="48" height="32" viewBox="0 0 48 32" fill="none" xmlns="http://www.w3.org/2000/svg">
<path d="M42.4567 7.75547C42.0129 6.28702 40.7126 5.1292 39.0636 4.73389C36.0507 4 23.9993 4 23.9993 4C23.9993 4 11.9487 4 8.9359 4.70611C7.31852 5.10108 5.98642 6.2872 5.54272 7.75547C4.75 10.4376 4.75 16 4.75 16C4.75 16 4.75 21.5905 5.54311 24.2444C5.98701 25.7128 7.28715 26.8705 8.93629 27.2658C11.9805 28 24 28 24 28C24 28 36.0507 28 39.0636 27.2938C40.7127 26.8987 42.0129 25.7411 42.457 24.2727C43.2498 21.5905 43.2498 16.0282 43.2498 16.0282C43.2498 16.0282 43.2813 10.4375 42.4567 7.75547ZM20.1625 21.1387V10.8612L30.184 16L20.1625 21.1387Z" fill="#00BE8B"/>
</svg>
